<?xml version="1.0" encoding="UTF-8" standalone="no"?>
<!-- Created with Inkscape (http://www.inkscape.org/) -->

<svg
   xmlns:dc="http://purl.org/dc/elements/1.1/"
   xmlns:cc="http://creativecommons.org/ns#"
   xmlns:rdf="http://www.w3.org/1999/02/22-rdf-syntax-ns#"
   xmlns:svg="http://www.w3.org/2000/svg"
   xmlns="http://www.w3.org/2000/svg"
   xmlns:xlink="http://www.w3.org/1999/xlink"
   xmlns:sodipodi="http://sodipodi.sourceforge.net/DTD/sodipodi-0.dtd"
   xmlns:inkscape="http://www.inkscape.org/namespaces/inkscape"
   width="256"
   height="256"
   id="svg2"
   version="1.1"
   inkscape:version="0.48.1 "
   sodipodi:docname="main_256.svg"
   inkscape:export-filename="D:\Dropbox\Spectrum\main_256.png"
   inkscape:export-xdpi="90"
   inkscape:export-ydpi="90">
  <defs
     id="defs4">
    <linearGradient
       inkscape:collect="always"
       id="linearGradient3929">
      <stop
         style="stop-color:#ffffff;stop-opacity:1;"
         offset="0"
         id="stop3931" />
      <stop
         style="stop-color:#ffffff;stop-opacity:0;"
         offset="1"
         id="stop3933" />
    </linearGradient>
    <linearGradient
       id="linearGradient3795">
      <stop
         style="stop-color:#ffffff;stop-opacity:1;"
         offset="0"
         id="stop3797" />
      <stop
         style="stop-color:#d5eaff;stop-opacity:1;"
         offset="1"
         id="stop3799" />
    </linearGradient>
    <radialGradient
       inkscape:collect="always"
       xlink:href="#linearGradient3795"
       id="radialGradient3801"
       cx="59.896519"
       cy="26.954624"
       fx="59.896519"
       fy="26.954624"
       r="111.5"
       gradientUnits="userSpaceOnUse"
       gradientTransform="matrix(1.4880077,1.4884017,-1.647299,1.6468631,29.275838,-74.540658)" />
    <radialGradient
       inkscape:collect="always"
       xlink:href="#linearGradient3929"
       id="radialGradient3935"
       cx="148.75758"
       cy="48.198994"
       fx="148.75758"
       fy="48.198994"
       r="3.2703688"
       gradientUnits="userSpaceOnUse" />
    <radialGradient
       inkscape:collect="always"
       xlink:href="#linearGradient3929"
       id="radialGradient3947"
       gradientUnits="userSpaceOnUse"
       cx="148.75758"
       cy="48.198994"
       fx="148.75758"
       fy="48.198994"
       r="3.2703688" />
    <radialGradient
       inkscape:collect="always"
       xlink:href="#linearGradient3929"
       id="radialGradient3955"
       gradientUnits="userSpaceOnUse"
       cx="148.75758"
       cy="48.198994"
       fx="148.75758"
       fy="48.198994"
       r="3.2703688" />
    <radialGradient
       inkscape:collect="always"
       xlink:href="#linearGradient3929"
       id="radialGradient3963"
       gradientUnits="userSpaceOnUse"
       cx="148.75758"
       cy="48.198994"
       fx="148.75758"
       fy="48.198994"
       r="3.2703688" />
    <radialGradient
       inkscape:collect="always"
       xlink:href="#linearGradient3929"
       id="radialGradient3971"
       gradientUnits="userSpaceOnUse"
       cx="148.75758"
       cy="48.198994"
       fx="148.75758"
       fy="48.198994"
       r="3.2703688" />
    <radialGradient
       inkscape:collect="always"
       xlink:href="#linearGradient3929"
       id="radialGradient3979"
       gradientUnits="userSpaceOnUse"
       cx="148.75758"
       cy="48.198994"
       fx="148.75758"
       fy="48.198994"
       r="3.2703688" />
    <radialGradient
       inkscape:collect="always"
       xlink:href="#linearGradient3929"
       id="radialGradient3987"
       gradientUnits="userSpaceOnUse"
       cx="148.75758"
       cy="48.198994"
       fx="148.75758"
       fy="48.198994"
       r="3.2703688" />
    <radialGradient
       inkscape:collect="always"
       xlink:href="#linearGradient3929"
       id="radialGradient3995"
       gradientUnits="userSpaceOnUse"
       cx="148.75758"
       cy="48.198994"
       fx="148.75758"
       fy="48.198994"
       r="3.2703688" />
    <radialGradient
       inkscape:collect="always"
       xlink:href="#linearGradient3929"
       id="radialGradient4003"
       gradientUnits="userSpaceOnUse"
       cx="148.75758"
       cy="48.198994"
       fx="148.75758"
       fy="48.198994"
       r="3.2703688" />
    <radialGradient
       inkscape:collect="always"
       xlink:href="#linearGradient3795"
       id="radialGradient4194"
       gradientUnits="userSpaceOnUse"
       gradientTransform="matrix(1.4880077,1.4884017,-1.647299,1.6468631,-190.72416,721.82152)"
       cx="59.896519"
       cy="26.954624"
       fx="59.896519"
       fy="26.954624"
       r="111.5" />
    <radialGradient
       inkscape:collect="always"
       xlink:href="#linearGradient3929"
       id="radialGradient4196"
       gradientUnits="userSpaceOnUse"
       cx="148.75758"
       cy="48.198994"
       fx="148.75758"
       fy="48.198994"
       r="3.2703688" />
    <radialGradient
       inkscape:collect="always"
       xlink:href="#linearGradient3929"
       id="radialGradient4198"
       gradientUnits="userSpaceOnUse"
       cx="148.75758"
       cy="48.198994"
       fx="148.75758"
       fy="48.198994"
       r="3.2703688" />
    <radialGradient
       inkscape:collect="always"
       xlink:href="#linearGradient3929"
       id="radialGradient4200"
       gradientUnits="userSpaceOnUse"
       cx="148.75758"
       cy="48.198994"
       fx="148.75758"
       fy="48.198994"
       r="3.2703688" />
    <radialGradient
       inkscape:collect="always"
       xlink:href="#linearGradient3929"
       id="radialGradient4202"
       gradientUnits="userSpaceOnUse"
       cx="148.75758"
       cy="48.198994"
       fx="148.75758"
       fy="48.198994"
       r="3.2703688" />
    <radialGradient
       inkscape:collect="always"
       xlink:href="#linearGradient3929"
       id="radialGradient4204"
       gradientUnits="userSpaceOnUse"
       cx="148.75758"
       cy="48.198994"
       fx="148.75758"
       fy="48.198994"
       r="3.2703688" />
    <radialGradient
       inkscape:collect="always"
       xlink:href="#linearGradient3929"
       id="radialGradient4206"
       gradientUnits="userSpaceOnUse"
       cx="148.75758"
       cy="48.198994"
       fx="148.75758"
       fy="48.198994"
       r="3.2703688" />
    <radialGradient
       inkscape:collect="always"
       xlink:href="#linearGradient3929"
       id="radialGradient4208"
       gradientUnits="userSpaceOnUse"
       cx="148.75758"
       cy="48.198994"
       fx="148.75758"
       fy="48.198994"
       r="3.2703688" />
    <radialGradient
       inkscape:collect="always"
       xlink:href="#linearGradient3929"
       id="radialGradient4210"
       gradientUnits="userSpaceOnUse"
       cx="148.75758"
       cy="48.198994"
       fx="148.75758"
       fy="48.198994"
       r="3.2703688" />
    <radialGradient
       inkscape:collect="always"
       xlink:href="#linearGradient3929"
       id="radialGradient4212"
       gradientUnits="userSpaceOnUse"
       cx="148.75758"
       cy="48.198994"
       fx="148.75758"
       fy="48.198994"
       r="3.2703688" />
  </defs>
  <sodipodi:namedview
     id="base"
     pagecolor="#ffffff"
     bordercolor="#666666"
     borderopacity="1.0"
     inkscape:pageopacity="0.0"
     inkscape:pageshadow="2"
     inkscape:zoom="2"
     inkscape:cx="210.16969"
     inkscape:cy="122.00244"
     inkscape:document-units="px"
     inkscape:current-layer="layer1"
     showgrid="false"
     inkscape:window-width="1920"
     inkscape:window-height="1018"
     inkscape:window-x="-8"
     inkscape:window-y="-8"
     inkscape:window-maximized="1">
    <inkscape:grid
       type="xygrid"
       id="grid4022"
       empspacing="5"
       visible="true"
       enabled="true"
       snapvisiblegridlinesonly="true" />
  </sodipodi:namedview>
  <metadata
     id="metadata7">
    <rdf:RDF>
      <cc:Work
         rdf:about="">
        <dc:format>image/svg+xml</dc:format>
        <dc:type
           rdf:resource="http://purl.org/dc/dcmitype/StillImage" />
        <dc:title></dc:title>
      </cc:Work>
    </rdf:RDF>
  </metadata>
  <g
     inkscape:label="Layer 1"
     inkscape:groupmode="layer"
     id="layer1"
     transform="translate(0,-796.36218)">
    <rect
       style="fill:url(#radialGradient3801);fill-opacity:1;stroke:none;stroke-width:1;stroke-miterlimit:4;stroke-opacity:1;stroke-dasharray:1, 2;stroke-dashoffset:0"
       id="rect3793"
       width="222"
       height="222"
       x="23.5"
       y="8.5"
       transform="translate(0,796.36218)" />
    <path
       id="path3788"
       style="fill:#ccccff;fill-opacity:1;fill-rule:evenodd;stroke:#9999ff;stroke-width:0.73744893000000000;stroke-linecap:butt;stroke-linejoin:miter;stroke-miterlimit:4;stroke-opacity:1;stroke-dasharray:0.73744894999999999, 1.47489789000000004;stroke-dashoffset:0"
       d="m 48.887531,1025.6047 0,-220.86276 m 27.99997,220.86276 0,-220.86276 m 27.999999,220.86276 0,-220.86276 m 140,220.86276 0,-220.86276 m -28,220.86276 0,-220.86276 m -28,220.86276 0,-220.86276 m -28,220.86276 0,-220.86276 m -28,220.86276 0,-220.86276"
       inkscape:connector-curvature="0"
       sodipodi:nodetypes="cccccccccccccccc" />
    <path
       inkscape:connector-curvature="0"
       d="m 243.73379,1001.1733 -220.862794,0 m 220.862794,-27.99997 -220.862794,0 m 220.862794,-27.99999 -220.862794,0 m 220.862794,-140 -220.862794,0 m 220.862794,28 -220.862794,0 m 220.862794,28 -220.862794,0 m 220.862794,28 -220.862794,0 m 220.862794,28 -220.862794,0"
       style="fill:#8d8dff;fill-opacity:1;fill-rule:evenodd;stroke:#9999ff;stroke-width:0.73744893000000000;stroke-linecap:butt;stroke-linejoin:miter;stroke-miterlimit:4;stroke-opacity:1;stroke-dasharray:0.73744894999999999, 1.47489789000000004;stroke-dashoffset:0"
       id="path3791"
       sodipodi:nodetypes="cccccccccccccccc" />
    <text
       xml:space="preserve"
       style="font-size:18.00889969px;font-style:normal;font-weight:normal;line-height:125%;letter-spacing:0px;word-spacing:0px;fill:#000000;fill-opacity:1;stroke:none;font-family:Sans"
       x="31.053841"
       y="1047.4675"
       id="text3803"
       sodipodi:linespacing="125%"><tspan
         sodipodi:role="line"
         id="tspan3805"
         x="31.053841"
         y="1047.4675">1</tspan></text>
    <text
       sodipodi:linespacing="125%"
       id="text3807"
       y="1047.4675"
       x="57.053841"
       style="font-size:18.00889969px;font-style:normal;font-weight:normal;line-height:125%;letter-spacing:0px;word-spacing:0px;fill:#000000;fill-opacity:1;stroke:none;font-family:Sans"
       xml:space="preserve"><tspan
         y="1047.4675"
         x="57.053841"
         id="tspan3809"
         sodipodi:role="line">2</tspan></text>
    <text
       xml:space="preserve"
       style="font-size:18.00889969px;font-style:normal;font-weight:normal;line-height:125%;letter-spacing:0px;word-spacing:0px;fill:#000000;fill-opacity:1;stroke:none;font-family:Sans"
       x="85.053841"
       y="1047.4675"
       id="text3811"
       sodipodi:linespacing="125%"><tspan
         sodipodi:role="line"
         id="tspan3813"
         x="85.053841"
         y="1047.4675">3</tspan></text>
    <text
       sodipodi:linespacing="125%"
       id="text3815"
       y="1047.4675"
       x="113.05384"
       style="font-size:18.00889969px;font-style:normal;font-weight:normal;line-height:125%;letter-spacing:0px;word-spacing:0px;fill:#000000;fill-opacity:1;stroke:none;font-family:Sans"
       xml:space="preserve"><tspan
         y="1047.4675"
         x="113.05384"
         id="tspan3817"
         sodipodi:role="line">5</tspan></text>
    <text
       xml:space="preserve"
       style="font-size:18.00889969px;font-style:normal;font-weight:normal;line-height:125%;letter-spacing:0px;word-spacing:0px;fill:#000000;fill-opacity:1;stroke:none;font-family:Sans"
       x="141.05383"
       y="1047.4675"
       id="text3819"
       sodipodi:linespacing="125%"><tspan
         sodipodi:role="line"
         id="tspan3821"
         x="141.05383"
         y="1047.4675">6</tspan></text>
    <text
       sodipodi:linespacing="125%"
       id="text3823"
       y="1047.4675"
       x="167.05383"
       style="font-size:18.00889969px;font-style:normal;font-weight:normal;line-height:125%;letter-spacing:0px;word-spacing:0px;fill:#000000;fill-opacity:1;stroke:none;font-family:Sans"
       xml:space="preserve"><tspan
         y="1047.4675"
         x="167.05383"
         id="tspan3825"
         sodipodi:role="line">7</tspan></text>
    <text
       xml:space="preserve"
       style="font-size:18.00889969px;font-style:normal;font-weight:normal;line-height:125%;letter-spacing:0px;word-spacing:0px;fill:#000000;fill-opacity:1;stroke:none;font-family:Sans"
       x="197.05383"
       y="1047.4675"
       id="text3827"
       sodipodi:linespacing="125%"><tspan
         sodipodi:role="line"
         id="tspan3829"
         x="197.05383"
         y="1047.4675">8</tspan></text>
    <text
       sodipodi:linespacing="125%"
       id="text3831"
       y="1047.4675"
       x="225.05383"
       style="font-size:18.00889969px;font-style:normal;font-weight:normal;line-height:125%;letter-spacing:0px;word-spacing:0px;fill:#000000;fill-opacity:1;stroke:none;font-family:Sans"
       xml:space="preserve"><tspan
         y="1047.4675"
         x="225.05383"
         id="tspan3833"
         sodipodi:role="line">9</tspan></text>
    <text
       sodipodi:linespacing="125%"
       id="text3835"
       y="1021.2175"
       x="6.3038406"
       style="font-size:18.00889969px;font-style:normal;font-weight:normal;line-height:125%;letter-spacing:0px;word-spacing:0px;fill:#000000;fill-opacity:1;stroke:none;font-family:Sans"
       xml:space="preserve"><tspan
         y="1021.2175"
         x="6.3038406"
         id="tspan3837"
         sodipodi:role="line">1</tspan></text>
    <text
       xml:space="preserve"
       style="font-size:18.00889969px;font-style:normal;font-weight:normal;line-height:125%;letter-spacing:0px;word-spacing:0px;fill:#000000;fill-opacity:1;stroke:none;font-family:Sans"
       x="6.3038406"
       y="993.21753"
       id="text3839"
       sodipodi:linespacing="125%"><tspan
         sodipodi:role="line"
         id="tspan3841"
         x="6.3038406"
         y="993.21753">2</tspan></text>
    <text
       sodipodi:linespacing="125%"
       id="text3843"
       y="965.21753"
       x="6.3038406"
       style="font-size:18.00889969px;font-style:normal;font-weight:normal;line-height:125%;letter-spacing:0px;word-spacing:0px;fill:#000000;fill-opacity:1;stroke:none;font-family:Sans"
       xml:space="preserve"><tspan
         y="965.21753"
         x="6.3038406"
         id="tspan3845"
         sodipodi:role="line">3</tspan></text>
    <text
       xml:space="preserve"
       style="font-size:18.00889969px;font-style:normal;font-weight:normal;line-height:125%;letter-spacing:0px;word-spacing:0px;fill:#000000;fill-opacity:1;stroke:none;font-family:Sans"
       x="6.3038406"
       y="937.21753"
       id="text3847"
       sodipodi:linespacing="125%"><tspan
         sodipodi:role="line"
         id="tspan3849"
         x="6.3038406"
         y="937.21753">4</tspan></text>
    <text
       sodipodi:linespacing="125%"
       id="text3851"
       y="909.21753"
       x="6.3038406"
       style="font-size:18.00889969px;font-style:normal;font-weight:normal;line-height:125%;letter-spacing:0px;word-spacing:0px;fill:#000000;fill-opacity:1;stroke:none;font-family:Sans"
       xml:space="preserve"><tspan
         y="909.21753"
         x="6.3038406"
         id="tspan3853"
         sodipodi:role="line">5</tspan></text>
    <text
       xml:space="preserve"
       style="font-size:18.00889969px;font-style:normal;font-weight:normal;line-height:125%;letter-spacing:0px;word-spacing:0px;fill:#000000;fill-opacity:1;stroke:none;font-family:Sans"
       x="6.3038406"
       y="881.21753"
       id="text3855"
       sodipodi:linespacing="125%"><tspan
         sodipodi:role="line"
         id="tspan3857"
         x="6.3038406"
         y="881.21753">6</tspan></text>
    <text
       sodipodi:linespacing="125%"
       id="text3859"
       y="853.21753"
       x="6.3038406"
       style="font-size:18.00889969px;font-style:normal;font-weight:normal;line-height:125%;letter-spacing:0px;word-spacing:0px;fill:#000000;fill-opacity:1;stroke:none;font-family:Sans"
       xml:space="preserve"><tspan
         y="853.21753"
         x="6.3038406"
         id="tspan3861"
         sodipodi:role="line">7</tspan></text>
    <text
       xml:space="preserve"
       style="font-size:18.00889969px;font-style:normal;font-weight:normal;line-height:125%;letter-spacing:0px;word-spacing:0px;fill:#000000;fill-opacity:1;stroke:none;font-family:Sans"
       x="6.3038406"
       y="825.21753"
       id="text3863"
       sodipodi:linespacing="125%"><tspan
         sodipodi:role="line"
         id="tspan3865"
         x="6.3038406"
         y="825.21753">8</tspan></text>
    <path
       style="fill:none;stroke:#000e34;stroke-width:2;stroke-miterlimit:4;stroke-opacity:1;stroke-dasharray:none"
       d="m 245.5,1026.9872 -222,0 0,-222.12502"
       id="rect3886"
       inkscape:connector-curvature="0"
       sodipodi:nodetypes="ccc" />
    <text
       sodipodi:linespacing="125%"
       id="text3891"
       y="1047.4675"
       x="7.0538406"
       style="font-size:18.00889969px;font-style:normal;font-weight:normal;line-height:125%;letter-spacing:0px;word-spacing:0px;fill:#000000;fill-opacity:1;stroke:none;font-family:Sans"
       xml:space="preserve"><tspan
         y="1047.4675"
         x="7.0538406"
         id="tspan3893"
         sodipodi:role="line">0</tspan></text>
    <path
       style="fill:none;stroke:#ff0000;stroke-width:2;stroke-linecap:butt;stroke-linejoin:miter;stroke-opacity:1;stroke-miterlimit:4;stroke-dasharray:none"
       d="M 24.041631,204.73476 C 104.44155,176.55193 119.24511,121.10738 132.94657,36.731962 145.54545,120.57824 160.25101,176.16249 243.95184,204.3812"
       id="path3895"
       inkscape:connector-curvature="0"
       transform="translate(0,796.36218)"
       sodipodi:nodetypes="ccc" />
    <g
       id="g3937">
      <path
         sodipodi:type="arc"
         style="fill:#0037ff;fill-opacity:1;stroke:none"
         id="path3903"
         sodipodi:cx="148.75758"
         sodipodi:cy="48.198994"
         sodipodi:rx="3.2703688"
         sodipodi:ry="3.2703688"
         d="m 152.02795,48.198994 c 0,1.806175 -1.46419,3.270368 -3.27037,3.270368 -1.80617,0 -3.27037,-1.464193 -3.27037,-3.270368 0,-1.806175 1.4642,-3.270369 3.27037,-3.270369 1.80618,0 3.27037,1.464194 3.27037,3.270369 z"
         transform="matrix(1.8860786,0,0,1.8860786,-177.24423,847.28499)" />
      <path
         transform="matrix(1.2568296,0.65484155,-0.84802339,1.5452453,-44.444179,764.99643)"
         d="m 152.02795,48.198994 c 0,1.806175 -1.46419,3.270368 -3.27037,3.270368 -1.80617,0 -3.27037,-1.464193 -3.27037,-3.270368 0,-1.806175 1.4642,-3.270369 3.27037,-3.270369 1.80618,0 3.27037,1.464194 3.27037,3.270369 z"
         sodipodi:ry="3.2703688"
         sodipodi:rx="3.2703688"
         sodipodi:cy="48.198994"
         sodipodi:cx="148.75758"
         id="path3923"
         style="opacity:0.86690644;fill:url(#radialGradient3935);fill-opacity:1;stroke:none"
         sodipodi:type="arc" />
    </g>
    <g
       id="g3941"
       transform="translate(58.5,0)">
      <path
         transform="matrix(1.8860786,0,0,1.8860786,-177.24423,847.28499)"
         d="m 152.02795,48.198994 c 0,1.806175 -1.46419,3.270368 -3.27037,3.270368 -1.80617,0 -3.27037,-1.464193 -3.27037,-3.270368 0,-1.806175 1.4642,-3.270369 3.27037,-3.270369 1.80618,0 3.27037,1.464194 3.27037,3.270369 z"
         sodipodi:ry="3.2703688"
         sodipodi:rx="3.2703688"
         sodipodi:cy="48.198994"
         sodipodi:cx="148.75758"
         id="path3943"
         style="fill:#0037ff;fill-opacity:1;stroke:none"
         sodipodi:type="arc" />
      <path
         sodipodi:type="arc"
         style="opacity:0.86690644;fill:url(#radialGradient3947);fill-opacity:1;stroke:none"
         id="path3945"
         sodipodi:cx="148.75758"
         sodipodi:cy="48.198994"
         sodipodi:rx="3.2703688"
         sodipodi:ry="3.2703688"
         d="m 152.02795,48.198994 c 0,1.806175 -1.46419,3.270368 -3.27037,3.270368 -1.80617,0 -3.27037,-1.464193 -3.27037,-3.270368 0,-1.806175 1.4642,-3.270369 3.27037,-3.270369 1.80618,0 3.27037,1.464194 3.27037,3.270369 z"
         transform="matrix(1.2568296,0.65484155,-0.84802339,1.5452453,-44.444179,764.99643)" />
    </g>
    <g
       transform="translate(29.75,-104.875)"
       id="g3965">
      <path
         sodipodi:type="arc"
         style="fill:#0037ff;fill-opacity:1;stroke:none"
         id="path3967"
         sodipodi:cx="148.75758"
         sodipodi:cy="48.198994"
         sodipodi:rx="3.2703688"
         sodipodi:ry="3.2703688"
         d="m 152.02795,48.198994 c 0,1.806175 -1.46419,3.270368 -3.27037,3.270368 -1.80617,0 -3.27037,-1.464193 -3.27037,-3.270368 0,-1.806175 1.4642,-3.270369 3.27037,-3.270369 1.80618,0 3.27037,1.464194 3.27037,3.270369 z"
         transform="matrix(1.8860786,0,0,1.8860786,-177.24423,847.28499)" />
      <path
         transform="matrix(1.2568296,0.65484155,-0.84802339,1.5452453,-44.444179,764.99643)"
         d="m 152.02795,48.198994 c 0,1.806175 -1.46419,3.270368 -3.27037,3.270368 -1.80617,0 -3.27037,-1.464193 -3.27037,-3.270368 0,-1.806175 1.4642,-3.270369 3.27037,-3.270369 1.80618,0 3.27037,1.464194 3.27037,3.270369 z"
         sodipodi:ry="3.2703688"
         sodipodi:rx="3.2703688"
         sodipodi:cy="48.198994"
         sodipodi:cx="148.75758"
         id="path3969"
         style="opacity:0.86690644;fill:url(#radialGradient3971);fill-opacity:1;stroke:none"
         sodipodi:type="arc" />
    </g>
    <g
       id="g3989"
       transform="translate(141.625,63.125)">
      <path
         transform="matrix(1.8860786,0,0,1.8860786,-177.24423,847.28499)"
         d="m 152.02795,48.198994 c 0,1.806175 -1.46419,3.270368 -3.27037,3.270368 -1.80617,0 -3.27037,-1.464193 -3.27037,-3.270368 0,-1.806175 1.4642,-3.270369 3.27037,-3.270369 1.80618,0 3.27037,1.464194 3.27037,3.270369 z"
         sodipodi:ry="3.2703688"
         sodipodi:rx="3.2703688"
         sodipodi:cy="48.198994"
         sodipodi:cx="148.75758"
         id="path3991"
         style="fill:#0037ff;fill-opacity:1;stroke:none"
         sodipodi:type="arc" />
      <path
         sodipodi:type="arc"
         style="opacity:0.86690644;fill:url(#radialGradient3995);fill-opacity:1;stroke:none"
         id="path3993"
         sodipodi:cx="148.75758"
         sodipodi:cy="48.198994"
         sodipodi:rx="3.2703688"
         sodipodi:ry="3.2703688"
         d="m 152.02795,48.198994 c 0,1.806175 -1.46419,3.270368 -3.27037,3.270368 -1.80617,0 -3.27037,-1.464193 -3.27037,-3.270368 0,-1.806175 1.4642,-3.270369 3.27037,-3.270369 1.80618,0 3.27037,1.464194 3.27037,3.270369 z"
         transform="matrix(1.2568296,0.65484155,-0.84802339,1.5452453,-44.444179,764.99643)" />
    </g>
    <path
       id="path4017"
       style="fill:none;stroke:#000e34;stroke-opacity:1"
       d="m 25.5,1000.8622 -6,0 m 6,-168 -6,0 m 6,28 -6,0 m 6,28 -6,0 m 6,28 -6,0 m 6,28 -6,0 m 6,28 -6,0" />
    <g
       transform="translate(-79.875,63.125)"
       id="g3997">
      <path
         sodipodi:type="arc"
         style="fill:#0037ff;fill-opacity:1;stroke:none"
         id="path3999"
         sodipodi:cx="148.75758"
         sodipodi:cy="48.198994"
         sodipodi:rx="3.2703688"
         sodipodi:ry="3.2703688"
         d="m 152.02795,48.198994 c 0,1.806175 -1.46419,3.270368 -3.27037,3.270368 -1.80617,0 -3.27037,-1.464193 -3.27037,-3.270368 0,-1.806175 1.4642,-3.270369 3.27037,-3.270369 1.80618,0 3.27037,1.464194 3.27037,3.270369 z"
         transform="matrix(1.8860786,0,0,1.8860786,-177.24423,847.28499)" />
      <path
         transform="matrix(1.2568296,0.65484155,-0.84802339,1.5452453,-44.444179,764.99643)"
         d="m 152.02795,48.198994 c 0,1.806175 -1.46419,3.270368 -3.27037,3.270368 -1.80617,0 -3.27037,-1.464193 -3.27037,-3.270368 0,-1.806175 1.4642,-3.270369 3.27037,-3.270369 1.80618,0 3.27037,1.464194 3.27037,3.270369 z"
         sodipodi:ry="3.2703688"
         sodipodi:rx="3.2703688"
         sodipodi:cy="48.198994"
         sodipodi:cx="148.75758"
         id="path4001"
         style="opacity:0.86690644;fill:url(#radialGradient4003);fill-opacity:1;stroke:none"
         sodipodi:type="arc" />
    </g>
    <path
       d="m 216.8125,1024.6122 0,6 m -168,-6 0,6 m 28,-6 0,6 m 28,-6 0,6 m 28,-6 0,6 m 28,-6 0,6 m 28,-6 0,6"
       style="fill:none;stroke:#000e34;stroke-opacity:1"
       id="path4020"
       inkscape:connector-curvature="0" />
    <path
       id="path4031"
       style="fill:#008927;fill-opacity:1;stroke:#005022;stroke-width:1;stroke-linecap:round;stroke-linejoin:round;stroke-miterlimit:4;stroke-opacity:1;stroke-dasharray:none"
       d="m 91.5,996.9872 -12,4 12,4 c -3.320879,-2.4674 -4.943705,-5.03671 0,-8 z m 82,4 -85.125,0"
       inkscape:connector-curvature="0"
       sodipodi:nodetypes="cccccc" />
    <path
       sodipodi:nodetypes="cccccc"
       inkscape:connector-curvature="0"
       d="m 174.20712,996.9872 12,4 -12,4 c 3.32088,-2.4674 4.9437,-5.03671 0,-8 z m -42,4 45.125,0"
       style="fill:#008927;fill-opacity:1;stroke:#005022;stroke-width:1;stroke-linecap:round;stroke-linejoin:round;stroke-miterlimit:4;stroke-opacity:1;stroke-dasharray:none"
       id="path4034" />
    <path
       inkscape:connector-curvature="0"
       id="path4036"
       style="fill:none;stroke:#005022;stroke-width:1.5;stroke-miterlimit:4;stroke-opacity:1;stroke-dasharray:4.5, 4.5;stroke-dashoffset:0"
       d="m 76.8125,806.6122 0,218"
       sodipodi:nodetypes="cc" />
    <path
       sodipodi:nodetypes="cc"
       d="m 188.8125,806.6122 0,218"
       style="fill:none;stroke:#005022;stroke-width:1.5;stroke-miterlimit:4;stroke-opacity:1;stroke-dasharray:4.5, 4.5;stroke-dashoffset:0"
       id="path4038"
       inkscape:connector-curvature="0" />
    <path
       sodipodi:nodetypes="cc"
       d="m 26.8125,973.14254 218,0"
       style="fill:none;stroke:#005022;stroke-width:1.5;stroke-miterlimit:4;stroke-opacity:1;stroke-dasharray:4.5, 4.5;stroke-dashoffset:0"
       id="path4040"
       inkscape:connector-curvature="0" />
    <g
       id="g3973"
       transform="translate(-26.5,35)">
      <path
         transform="matrix(1.8860786,0,0,1.8860786,-177.24423,847.28499)"
         d="m 152.02795,48.198994 c 0,1.806175 -1.46419,3.270368 -3.27037,3.270368 -1.80617,0 -3.27037,-1.464193 -3.27037,-3.270368 0,-1.806175 1.4642,-3.270369 3.27037,-3.270369 1.80618,0 3.27037,1.464194 3.27037,3.270369 z"
         sodipodi:ry="3.2703688"
         sodipodi:rx="3.2703688"
         sodipodi:cy="48.198994"
         sodipodi:cx="148.75758"
         id="path3975"
         style="fill:#0037ff;fill-opacity:1;stroke:none"
         sodipodi:type="arc" />
      <path
         sodipodi:type="arc"
         style="opacity:0.86690644;fill:url(#radialGradient3979);fill-opacity:1;stroke:none"
         id="path3977"
         sodipodi:cx="148.75758"
         sodipodi:cy="48.198994"
         sodipodi:rx="3.2703688"
         sodipodi:ry="3.2703688"
         d="m 152.02795,48.198994 c 0,1.806175 -1.46419,3.270368 -3.27037,3.270368 -1.80617,0 -3.27037,-1.464193 -3.27037,-3.270368 0,-1.806175 1.4642,-3.270369 3.27037,-3.270369 1.80618,0 3.27037,1.464194 3.27037,3.270369 z"
         transform="matrix(1.2568296,0.65484155,-0.84802339,1.5452453,-44.444179,764.99643)" />
    </g>
    <g
       transform="translate(87.75,35)"
       id="g3981">
      <path
         sodipodi:type="arc"
         style="fill:#0037ff;fill-opacity:1;stroke:none"
         id="path3983"
         sodipodi:cx="148.75758"
         sodipodi:cy="48.198994"
         sodipodi:rx="3.2703688"
         sodipodi:ry="3.2703688"
         d="m 152.02795,48.198994 c 0,1.806175 -1.46419,3.270368 -3.27037,3.270368 -1.80617,0 -3.27037,-1.464193 -3.27037,-3.270368 0,-1.806175 1.4642,-3.270369 3.27037,-3.270369 1.80618,0 3.27037,1.464194 3.27037,3.270369 z"
         transform="matrix(1.8860786,0,0,1.8860786,-177.24423,847.28499)" />
      <path
         transform="matrix(1.2568296,0.65484155,-0.84802339,1.5452453,-44.444179,764.99643)"
         d="m 152.02795,48.198994 c 0,1.806175 -1.46419,3.270368 -3.27037,3.270368 -1.80617,0 -3.27037,-1.464193 -3.27037,-3.270368 0,-1.806175 1.4642,-3.270369 3.27037,-3.270369 1.80618,0 3.27037,1.464194 3.27037,3.270369 z"
         sodipodi:ry="3.2703688"
         sodipodi:rx="3.2703688"
         sodipodi:cy="48.198994"
         sodipodi:cx="148.75758"
         id="path3985"
         style="opacity:0.86690644;fill:url(#radialGradient3987);fill-opacity:1;stroke:none"
         sodipodi:type="arc" />
    </g>
    <path
       inkscape:connector-curvature="0"
       id="path4044"
       style="fill:none;stroke:#005022;stroke-width:1.5;stroke-miterlimit:4;stroke-opacity:1;stroke-dasharray:4.5, 4.5;stroke-dashoffset:0"
       d="m 26.8125,889.14254 218,0"
       sodipodi:nodetypes="cc" />
    <g
       id="g3949"
       transform="translate(18.75,-48.375)">
      <path
         transform="matrix(1.8860786,0,0,1.8860786,-177.24423,847.28499)"
         d="m 152.02795,48.198994 c 0,1.806175 -1.46419,3.270368 -3.27037,3.270368 -1.80617,0 -3.27037,-1.464193 -3.27037,-3.270368 0,-1.806175 1.4642,-3.270369 3.27037,-3.270369 1.80618,0 3.27037,1.464194 3.27037,3.270369 z"
         sodipodi:ry="3.2703688"
         sodipodi:rx="3.2703688"
         sodipodi:cy="48.198994"
         sodipodi:cx="148.75758"
         id="path3951"
         style="fill:#0037ff;fill-opacity:1;stroke:none"
         sodipodi:type="arc" />
      <path
         sodipodi:type="arc"
         style="opacity:0.86690644;fill:url(#radialGradient3955);fill-opacity:1;stroke:none"
         id="path3953"
         sodipodi:cx="148.75758"
         sodipodi:cy="48.198994"
         sodipodi:rx="3.2703688"
         sodipodi:ry="3.2703688"
         d="m 152.02795,48.198994 c 0,1.806175 -1.46419,3.270368 -3.27037,3.270368 -1.80617,0 -3.27037,-1.464193 -3.27037,-3.270368 0,-1.806175 1.4642,-3.270369 3.27037,-3.270369 1.80618,0 3.27037,1.464194 3.27037,3.270369 z"
         transform="matrix(1.2568296,0.65484155,-0.84802339,1.5452453,-44.444179,764.99643)" />
    </g>
    <g
       transform="translate(40.25,-48.375)"
       id="g3957">
      <path
         sodipodi:type="arc"
         style="fill:#0037ff;fill-opacity:1;stroke:none"
         id="path3959"
         sodipodi:cx="148.75758"
         sodipodi:cy="48.198994"
         sodipodi:rx="3.2703688"
         sodipodi:ry="3.2703688"
         d="m 152.02795,48.198994 c 0,1.806175 -1.46419,3.270368 -3.27037,3.270368 -1.80617,0 -3.27037,-1.464193 -3.27037,-3.270368 0,-1.806175 1.4642,-3.270369 3.27037,-3.270369 1.80618,0 3.27037,1.464194 3.27037,3.270369 z"
         transform="matrix(1.8860786,0,0,1.8860786,-177.24423,847.28499)" />
      <path
         transform="matrix(1.2568296,0.65484155,-0.84802339,1.5452453,-44.444179,764.99643)"
         d="m 152.02795,48.198994 c 0,1.806175 -1.46419,3.270368 -3.27037,3.270368 -1.80617,0 -3.27037,-1.464193 -3.27037,-3.270368 0,-1.806175 1.4642,-3.270369 3.27037,-3.270369 1.80618,0 3.27037,1.464194 3.27037,3.270369 z"
         sodipodi:ry="3.2703688"
         sodipodi:rx="3.2703688"
         sodipodi:cy="48.198994"
         sodipodi:cx="148.75758"
         id="path3961"
         style="opacity:0.86690644;fill:url(#radialGradient3963);fill-opacity:1;stroke:none"
         sodipodi:type="arc" />
    </g>
  </g>
</svg>
